<svg xmlns="http://www.w3.org/2000/svg" viewBox="0 0 980 560" role="img" aria-labelledby="title desc">
  <title id="title">DJConnect landscape device illustration based on LilyGO T-Embed form factor</title>
  <desc id="desc">A stylized landscape DJConnect remote with display on the left and encoder controls on the right.</desc>
  <defs>
    <radialGradient id="glow" cx="52%" cy="48%" r="62%">
      <stop offset="0%" stop-color="#1ed760" stop-opacity="0.34"/>
      <stop offset="58%" stop-color="#38bdf8" stop-opacity="0.13"/>
      <stop offset="100%" stop-color="#000" stop-opacity="0"/>
    </radialGradient>
    <linearGradient id="body" x1="10%" x2="94%" y1="8%" y2="92%">
      <stop offset="0%" stop-color="#2c3546"/>
      <stop offset="46%" stop-color="#111827"/>
      <stop offset="100%" stop-color="#030407"/>
    </linearGradient>
    <linearGradient id="screen" x1="0%" x2="100%" y1="0%" y2="100%">
      <stop offset="0%" stop-color="#182233"/>
      <stop offset="62%" stop-color="#070b12"/>
      <stop offset="100%" stop-color="#050608"/>
    </linearGradient>
    <linearGradient id="iconAccent" x1="170" y1="154" x2="406" y2="376" gradientUnits="userSpaceOnUse">
      <stop offset="0%" stop-color="#66e0ff"/>
      <stop offset="50%" stop-color="#7b5cff"/>
      <stop offset="100%" stop-color="#db5cff"/>
    </linearGradient>
    <radialGradient id="iconVinyl" cx="42%" cy="30%" r="74%">
      <stop offset="0%" stop-color="#343047"/>
      <stop offset="48%" stop-color="#13111d"/>
      <stop offset="100%" stop-color="#030207"/>
    </radialGradient>
    <filter id="shadow" x="-20%" y="-30%" width="140%" height="170%">
      <feDropShadow dx="0" dy="34" stdDeviation="32" flood-color="#000" flood-opacity="0.55"/>
    </filter>
    <filter id="greenGlow" x="-45%" y="-45%" width="190%" height="190%">
      <feDropShadow dx="0" dy="0" stdDeviation="18" flood-color="#1ed760" flood-opacity="0.68"/>
    </filter>
    <filter id="purpleGlow" x="-45%" y="-45%" width="190%" height="190%">
      <feDropShadow dx="0" dy="0" stdDeviation="14" flood-color="#c084fc" flood-opacity="0.78"/>
    </filter>
    <clipPath id="screenClip">
      <rect x="96" y="154" width="484" height="252" rx="34"/>
    </clipPath>
  </defs>
  <rect width="980" height="560" fill="url(#glow)"/>
  <g filter="url(#shadow)">
    <rect x="40" y="92" width="900" height="376" rx="132" fill="url(#body)" stroke="rgba(255,255,255,0.22)" stroke-width="3"/>
    <rect x="96" y="154" width="484" height="252" rx="34" fill="url(#screen)" stroke="rgba(255,255,255,0.18)" stroke-width="2"/>

    <g clip-path="url(#screenClip)">
      <g filter="url(#greenGlow)">
        <path d="M170 294c-15-39-8-90 25-120 34-30 86-34 122-7 33 25 44 73 28 110" fill="none" stroke="url(#iconAccent)" stroke-width="7" stroke-linecap="round"/>
        <circle cx="220" cy="255" r="50" fill="url(#iconVinyl)"/>
        <circle cx="220" cy="255" r="16" fill="#151023" stroke="url(#iconAccent)" stroke-width="5"/>
        <path d="M272 206c11-6 25 2 25 14 0 11-11 19-21 16-9 32-19 60-40 81-9 9-19 16-28 19" fill="none" stroke="#dbe6ff" stroke-width="9" stroke-linecap="round" stroke-linejoin="round"/>
        <circle cx="281" cy="220" r="13" fill="#131522" stroke="url(#iconAccent)" stroke-width="4"/>
        <text x="174" y="319" fill="#f7f9ff" stroke="url(#iconAccent)" stroke-width="4" stroke-linejoin="round" font-family="Avenir Next, Arial Black, Impact, sans-serif" font-style="italic" font-weight="900" font-size="62" letter-spacing="-6">DJ</text>
      </g>

      <text x="430" y="230" text-anchor="middle" fill="#f7f7fb" font-family="Inter, Arial, sans-serif" font-size="36" font-weight="900">DJConnect</text>
      <text x="430" y="276" text-anchor="middle" fill="#9de8ff" font-family="Inter, Arial, sans-serif" font-size="18" font-weight="800" letter-spacing="2">PUSH TO TALK</text>
      <text x="430" y="316" text-anchor="middle" fill="#b7bccb" font-family="Inter, Arial, sans-serif" font-size="20" font-weight="700">Vraag muziek.</text>
      <text x="430" y="346" text-anchor="middle" fill="#b7bccb" font-family="Inter, Arial, sans-serif" font-size="20" font-weight="700">Krijg DJ response.</text>
    </g>

    <circle cx="748" cy="280" r="106" fill="#0a0d13" stroke="rgba(255,255,255,0.16)" stroke-width="4"/>
    <g fill="#c084fc" stroke="#f0abfc" stroke-width="2" filter="url(#purpleGlow)">
      <circle cx="748" cy="146" r="9"/>
      <circle cx="843" cy="185" r="9"/>
      <circle cx="882" cy="280" r="9"/>
      <circle cx="843" cy="375" r="9"/>
      <circle cx="748" cy="414" r="9"/>
      <circle cx="653" cy="375" r="9"/>
      <circle cx="614" cy="280" r="9"/>
      <circle cx="653" cy="185" r="9"/>
    </g>
    <circle cx="748" cy="280" r="78" fill="#05060a" stroke="#090b11" stroke-width="10"/>
    <circle cx="748" cy="280" r="58" fill="#020308" stroke="rgba(255,255,255,0.22)" stroke-width="3"/>
    <g fill="#000" stroke="rgba(255,255,255,0.10)" stroke-width="1">
      <circle cx="748" cy="204" r="4"/>
      <circle cx="786" cy="214" r="4"/>
      <circle cx="814" cy="242" r="4"/>
      <circle cx="824" cy="280" r="4"/>
      <circle cx="814" cy="318" r="4"/>
      <circle cx="786" cy="346" r="4"/>
      <circle cx="748" cy="356" r="4"/>
      <circle cx="710" cy="346" r="4"/>
      <circle cx="682" cy="318" r="4"/>
      <circle cx="672" cy="280" r="4"/>
      <circle cx="682" cy="242" r="4"/>
      <circle cx="710" cy="214" r="4"/>
    </g>
    <circle cx="748" cy="280" r="30" fill="#0d111b" stroke="rgba(255,255,255,0.16)" stroke-width="2"/>
    <path d="M748 224v22" stroke="#c084fc" stroke-width="7" stroke-linecap="round" filter="url(#purpleGlow)"/>
    <polygon points="738,261 738,299 770,280" fill="#1ed760" filter="url(#greenGlow)"/>
  </g>
</svg>
