<svg xmlns="http://www.w3.org/2000/svg" viewBox="0 0 980 560" role="img" aria-labelledby="title desc">
  <title id="title">DJConnect landscape device illustration based on LilyGO T-Embed form factor</title>
  <desc id="desc">A stylized landscape DJConnect remote with display on the left and encoder controls on the right.</desc>
  <defs>
    <radialGradient id="glow" cx="52%" cy="48%" r="62%">
      <stop offset="0%" stop-color="#1ed760" stop-opacity="0.34"/>
      <stop offset="58%" stop-color="#38bdf8" stop-opacity="0.13"/>
      <stop offset="100%" stop-color="#000" stop-opacity="0"/>
    </radialGradient>
    <linearGradient id="body" x1="10%" x2="94%" y1="8%" y2="92%">
      <stop offset="0%" stop-color="#2c3546"/>
      <stop offset="46%" stop-color="#111827"/>
      <stop offset="100%" stop-color="#030407"/>
    </linearGradient>
    <linearGradient id="screen" x1="0%" x2="100%" y1="0%" y2="100%">
      <stop offset="0%" stop-color="#182233"/>
      <stop offset="62%" stop-color="#070b12"/>
      <stop offset="100%" stop-color="#050608"/>
    </linearGradient>
    <linearGradient id="djAccent" x1="126" y1="190" x2="266" y2="330" gradientUnits="userSpaceOnUse">
      <stop offset="0%" stop-color="#66e0ff"/>
      <stop offset="48%" stop-color="#7b5cff"/>
      <stop offset="100%" stop-color="#db5cff"/>
    </linearGradient>
    <linearGradient id="djMetal" x1="210" y1="190" x2="270" y2="275" gradientUnits="userSpaceOnUse">
      <stop offset="0%" stop-color="#f2f7ff"/>
      <stop offset="28%" stop-color="#aebdde"/>
      <stop offset="58%" stop-color="#343b54"/>
      <stop offset="100%" stop-color="#e4ecff"/>
    </linearGradient>
    <radialGradient id="djVinyl" cx="42%" cy="32%" r="76%">
      <stop offset="0%" stop-color="#343047"/>
      <stop offset="48%" stop-color="#13111d"/>
      <stop offset="100%" stop-color="#030207"/>
    </radialGradient>
    <filter id="shadow" x="-20%" y="-30%" width="140%" height="170%">
      <feDropShadow dx="0" dy="34" stdDeviation="32" flood-color="#000" flood-opacity="0.55"/>
    </filter>
    <filter id="greenGlow" x="-45%" y="-45%" width="190%" height="190%">
      <feDropShadow dx="0" dy="0" stdDeviation="18" flood-color="#1ed760" flood-opacity="0.68"/>
    </filter>
    <filter id="purpleGlow" x="-45%" y="-45%" width="190%" height="190%">
      <feDropShadow dx="0" dy="0" stdDeviation="14" flood-color="#c084fc" flood-opacity="0.78"/>
    </filter>
    <filter id="iconGlow" x="-45%" y="-45%" width="190%" height="190%">
      <feDropShadow dx="0" dy="0" stdDeviation="12" flood-color="#7b5cff" flood-opacity="0.62"/>
      <feDropShadow dx="0" dy="0" stdDeviation="18" flood-color="#66e0ff" flood-opacity="0.24"/>
    </filter>
    <clipPath id="screenClip">
      <rect x="96" y="154" width="484" height="252" rx="34"/>
    </clipPath>
    <clipPath id="djIconClip">
      <rect x="130" y="196" width="124" height="124" rx="24"/>
    </clipPath>
  </defs>
  <rect width="980" height="560" fill="url(#glow)"/>
  <g filter="url(#shadow)">
    <rect x="40" y="92" width="900" height="376" rx="132" fill="url(#body)" stroke="rgba(255,255,255,0.22)" stroke-width="3"/>
    <rect x="96" y="154" width="484" height="252" rx="34" fill="url(#screen)" stroke="rgba(255,255,255,0.18)" stroke-width="2"/>

    <g clip-path="url(#screenClip)">
      <g clip-path="url(#djIconClip)" filter="url(#iconGlow)">
        <rect x="130" y="196" width="124" height="124" rx="24" fill="#0b0815"/>
        <circle cx="154" cy="214" r="34" fill="#7d5cff" opacity="0.15"/>
        <circle cx="238" cy="303" r="38" fill="#3ce1ff" opacity="0.08"/>
        <path d="M143 288c-10-26-5-62 17-82 24-22 60-24 86-5 23 17 31 50 20 78" fill="none" stroke="url(#djAccent)" stroke-width="6" stroke-linecap="round"/>
        <circle cx="188" cy="258" r="43" fill="url(#djVinyl)"/>
        <circle cx="188" cy="258" r="31" fill="none" stroke="#fff" stroke-opacity="0.07" stroke-width="1.5"/>
        <circle cx="188" cy="258" r="21" fill="none" stroke="#8fa0ff" stroke-opacity="0.13" stroke-width="1.6"/>
        <circle cx="188" cy="258" r="13" fill="#151023" stroke="url(#djAccent)" stroke-width="5"/>
        <path d="M237 207c10-6 23 2 23 14 0 10-10 18-20 15-8 31-18 56-38 77-9 9-18 15-27 18" fill="none" stroke="url(#djMetal)" stroke-width="8" stroke-linecap="round" stroke-linejoin="round"/>
        <circle cx="246" cy="221" r="14" fill="#131522" stroke="url(#djAccent)" stroke-width="4"/>
        <path d="M240 216h12M238 221h16M241 226h10" stroke="#dbe6ff" stroke-opacity="0.78" stroke-width="2" stroke-linecap="round"/>
        <text x="148" y="302" fill="#080711" stroke="#080711" stroke-width="11" stroke-linejoin="round" font-family="Avenir Next, Arial Black, Impact, sans-serif" font-style="italic" font-weight="900" font-size="62" letter-spacing="-7">DJ</text>
        <text x="148" y="302" fill="#f7f9ff" stroke="url(#djAccent)" stroke-width="3.5" stroke-linejoin="round" font-family="Avenir Next, Arial Black, Impact, sans-serif" font-style="italic" font-weight="900" font-size="62" letter-spacing="-7">DJ</text>
      </g>

      <text x="430" y="230" text-anchor="middle" fill="#f7f7fb" font-family="Inter, Arial, sans-serif" font-size="36" font-weight="900">DJConnect</text>
      <text x="430" y="276" text-anchor="middle" fill="#9de8ff" font-family="Inter, Arial, sans-serif" font-size="18" font-weight="800" letter-spacing="2">PUSH TO TALK</text>
      <text x="430" y="316" text-anchor="middle" fill="#b7bccb" font-family="Inter, Arial, sans-serif" font-size="20" font-weight="700">Vraag muziek.</text>
      <text x="430" y="346" text-anchor="middle" fill="#b7bccb" font-family="Inter, Arial, sans-serif" font-size="20" font-weight="700">Krijg persoonlijk aangekondigd.</text>
    </g>

    <circle cx="748" cy="280" r="106" fill="#0a0d13" stroke="rgba(255,255,255,0.16)" stroke-width="4"/>
    <g fill="#c084fc" stroke="#f0abfc" stroke-width="2" filter="url(#purpleGlow)">
      <circle cx="748" cy="146" r="9"/>
      <circle cx="843" cy="185" r="9"/>
      <circle cx="882" cy="280" r="9"/>
      <circle cx="843" cy="375" r="9"/>
      <circle cx="748" cy="414" r="9"/>
      <circle cx="653" cy="375" r="9"/>
      <circle cx="614" cy="280" r="9"/>
      <circle cx="653" cy="185" r="9"/>
    </g>
    <circle cx="748" cy="280" r="78" fill="#05060a" stroke="#090b11" stroke-width="10"/>
    <circle cx="748" cy="280" r="58" fill="#020308" stroke="rgba(255,255,255,0.22)" stroke-width="3"/>
    <g fill="#000" stroke="rgba(255,255,255,0.10)" stroke-width="1">
      <circle cx="748" cy="204" r="4"/>
      <circle cx="786" cy="214" r="4"/>
      <circle cx="814" cy="242" r="4"/>
      <circle cx="824" cy="280" r="4"/>
      <circle cx="814" cy="318" r="4"/>
      <circle cx="786" cy="346" r="4"/>
      <circle cx="748" cy="356" r="4"/>
      <circle cx="710" cy="346" r="4"/>
      <circle cx="682" cy="318" r="4"/>
      <circle cx="672" cy="280" r="4"/>
      <circle cx="682" cy="242" r="4"/>
      <circle cx="710" cy="214" r="4"/>
    </g>
    <circle cx="748" cy="280" r="30" fill="#0d111b" stroke="rgba(255,255,255,0.16)" stroke-width="2"/>
    <path d="M748 224v22" stroke="#c084fc" stroke-width="7" stroke-linecap="round" filter="url(#purpleGlow)"/>
    <polygon points="738,261 738,299 770,280" fill="#1ed760" filter="url(#greenGlow)"/>
  </g>
</svg>
